<?xml version="1.0" ?><svg enable-background="new 0 0 24 24" id="Layer_1" version="1.1" viewBox="0 0 24 24" xml:space="preserve" xmlns="http://www.w3.org/2000/svg" xmlns:xlink="http://www.w3.org/1999/xlink"><g><path d="M24,4.5v-2C24,0.5224609,18.4399414,0,15.5,0S7,0.5224609,7,2.5v2   c0,1.3438721,0.3218994,2.611145,0.8795776,3.7420044C3.2741089,9.0741577,0,12.0125122,0,15.4228516   c0,2.2671509,1.4613647,4.9869995,8.1668701,5.4925537C8.0609131,21.0960693,8,21.289978,8,21.5c0,1.7177734,3.8876953,2.5,7.5,2.5   s7.5-0.7822266,7.5-2.5c0-1.2081299-1.8884277-1.9185791-4.1152344-2.2559204C20.2878418,18.3178101,21,17.0389404,21,15.4228516   c0-1.2161255-0.446228-2.4053955-1.2537231-3.4787598l0.2557373-0.2474365C22.3985596,10.1919556,24,7.5326538,24,4.5z" fill="#303C42"/><path d="M15.5,1C20.371582,1,23,2.0644531,23,2.5S20.371582,4,15.5,4S8,2.9355469,8,2.5S10.628418,1,15.5,1z" fill="#B2B5B6"/><path d="M9.75,3c0-0.4355469,2.628418-1.5,7.5-1.5c2.0697021,0,3.7299194,0.1928101,4.9603271,0.4472046   C21.0960693,1.4943848,18.8203125,1,15.5,1C10.628418,1,8,2.0644531,8,2.5c0,0.2504883,0.8740234,0.708374,2.5396729,1.0527954   C10.019043,3.3412476,9.75,3.1386719,9.75,3z" opacity="0.1"/><path d="M5.2763062,10.0709839C5.708313,9.8779907,6.164978,9.708374,6.6447144,9.5640259   c-0.307251,0.5371704-0.5971069,1.1143188-0.8644409,1.656189c-0.2392578,0.4853516-0.4980469,1.0107422-0.7246094,1.3920898   C4.9678955,12.0681152,5.0021362,11.0961914,5.2763062,10.0709839z" fill="#D7A580"/><path d="M1,15.4228516c0-1.8618164,1.1953125-3.5648193,3.1272583-4.7497559   c-0.1968384,1.2098389-0.2407837,2.8295898,0.6491089,3.2741699C4.847168,13.9824219,4.9238281,14,5,14   c0.1123047,0,0.2236328-0.0375977,0.3144531-0.1113281c0.4194336-0.3388672,0.7910156-1.0664062,1.362793-2.2260742   c0.4176636-0.8467407,0.8881226-1.7874756,1.3740234-2.4365845c0.1165771-0.0210571,0.2352905-0.0386353,0.3537598-0.0567627   c0.2503052,0.3790894,0.5339966,0.7327271,0.8400269,1.0662842c-0.1756592,0.9238281-0.6573486,4.0137329,0.6069946,4.7034302   C9.9272461,14.9799805,10.0092773,15,10.0913086,15c0.1191406,0,0.2373047-0.0424805,0.3305664-0.125   c0.4428711-0.390564,0.8666382-1.2562256,1.3743286-2.3708496C13.1345825,13.7910767,13.8812256,14.602417,14,16.5317383   c0.0559692,0.9093018-0.0561523,1.7833252-0.2194824,2.5305786c-1.6402588,0.1153564-3.2938843,0.4067993-4.411438,0.9170532   C3.8175049,19.7907715,1,18.2588501,1,15.4228516z" fill="#E7C1A2"/><path d="M11.0323486,11.7672119c-0.3190308,0.7050781-0.6417236,1.409729-0.9180908,1.8782959   c-0.1300659-0.5117798-0.1622925-1.4437866,0.0014648-2.5743408c0.2830811,0.2323608,0.5857544,0.4400635,0.897522,0.6348267   l-0.0215454,0.0220337L11.0323486,11.7672119z" fill="#D7A580"/><path d="M16.8740234,21.3227539c-0.6318359,0.1777344-2.1162109,0.1777344-2.7480469,0   c0.3334961-0.8056641,1.003418-2.7202148,0.8720703-4.8525391c-0.1071167-1.7408447-0.6998901-2.7664185-1.5770264-3.7380371   C14.0877075,12.9006958,14.7816772,13,15.5,13c0.7092896,0,1.3947144-0.0969238,2.053772-0.2613525   c-0.8638306,0.9780884-1.4465332,2.0175171-1.5518188,3.7315674   C15.8706055,18.6025391,16.5405273,20.5170898,16.8740234,21.3227539z" fill="#B2B5B6"/><path d="M15.4917603,21.4558716c-0.2692261-0.0002441-0.538208-0.0444946-0.6989746-0.1331177   c0.170166-0.8056641,0.5119629-2.7202148,0.4449463-4.8525391c-0.0508423-1.6211548-0.3184814-2.6209106-0.7161865-3.5355835   c-0.3739624-0.0459595-0.7418823-0.1118164-1.1005249-0.2024536c0.8771362,0.9716187,1.4699097,1.9971924,1.5770264,3.7380371   c0.1313477,2.1323242-0.5385742,4.046875-0.8720703,4.8525391C14.4402466,21.4111328,14.9654541,21.4553833,15.4917603,21.4558716z   " fill="#FFFFFF" opacity="0.2"/><polygon fill="#FFFFFF" opacity="0.2" points="15.4959106,12.9997559 15.4874268,12.9991455 15.4938354,13  "/><path d="M16.0019531,16.4702148c0.1052856-1.7140503,0.6879883-2.753479,1.5518188-3.7315674   c-0.3574829,0.0891724-0.7241821,0.1534424-1.0967407,0.1981812c-0.3930054,0.9230347-0.6569824,1.9338379-0.7070923,3.5333862   c-0.0670166,2.1323242,0.2747803,4.046875,0.4449463,4.8525391c-0.1609497,0.0887451-0.4302979,0.1330566-0.6998291,0.1331787   c0.5307007,0.0003052,1.0620728-0.0440063,1.3789673-0.1331787C16.5405273,20.5170898,15.8706055,18.6025391,16.0019531,16.4702148   z" opacity="0.1"/><path d="M22,21.5c0,0.4487305-2.2114258,1.5-6.5,1.5S9,21.9487305,9,21.5   c0-0.3126831,1.3658447-1.1309814,4.5018311-1.4052734c-0.2269897,0.7111206-0.4450684,1.173645-0.4500732,1.1835938   C13.0180664,21.347168,13,21.4233398,13,21.5c0,0.972168,2.2441406,1,2.5,1s2.5-0.027832,2.5-1   c0-0.0771484-0.0180664-0.1533203-0.0522461-0.222168c-0.0047607-0.0100098-0.2235107-0.4716797-0.4508057-1.1832275   C20.6339111,20.3687744,22,21.1872559,22,21.5z" fill="#B2B5B6"/><path d="M10.4854736,21.75c0-0.2503662,0.8949585-0.821106,2.854126-1.1809692   c0.0515747-0.1414795,0.1065674-0.2999268,0.1622314-0.4743042C10.3658447,20.3690186,9,21.1873169,9,21.5   c0,0.3438721,1.3095703,1.0377197,3.8460693,1.3450317C11.2932129,22.4993896,10.4854736,22.0183105,10.4854736,21.75z" fill="#FFFFFF" opacity="0.2"/><path d="M20,15.4228516c0,1.6297607-0.9221802,2.7954712-2.7948608,3.5674438   C17.0505981,18.2595215,16.9456787,17.4151001,17,16.5317383c0.1124268-1.8299561,0.8305664-2.7175293,2.0241089-3.8882446   C19.6519775,13.515564,20,14.4637451,20,15.4228516z" fill="#E7C1A2"/><path d="M9.4940796,18.9376831c-5.5186768-0.1875-8.3327637-1.7036743-8.3659668-4.5075073   C1.0521851,14.7553101,1,15.085144,1,15.4228516c0,2.8359985,2.8175049,4.3679199,8.3690796,4.5565186   c1.1175537-0.5102539,2.7711792-0.8016968,4.411438-0.9170532c0.0163574-0.0748291,0.0292969-0.156189,0.0444946-0.2334595   C12.5579834,18.9873047,10.7991333,18.9822998,9.4940796,18.9376831z" opacity="0.1"/><path d="M19.1424561,12.8326416C19.2912598,13.2749634,19.375,13.7260742,19.375,14.1802368   c0,1.4971313-0.788208,2.5983276-2.3665771,3.3668213c0.0327148,0.5108032,0.1029053,0.9995117,0.1967163,1.4432373   C19.0778198,18.2183228,20,17.0526123,20,15.4228516C20,14.5317383,19.6885986,13.6525879,19.1424561,12.8326416z" opacity="0.1"/><path d="M15.5,12C11.3642578,12,8,8.6357422,8,4.5V3.767395C9.734375,4.7129517,13.3287964,5,15.5,5   s5.765625-0.2870483,7.5-1.232605V4.5C23,8.6357422,19.6357422,12,15.5,12z" fill="#B2B5B6"/><path d="M22.0875854,4.1477051c-0.6240234,3.5100098-3.6906128,6.1856079-7.3772583,6.1856079   c-2.6657104,0-5.0046387-1.4019165-6.335022-3.5029297C9.3582153,9.8276978,12.1781616,12,15.5,12   c4.1357422,0,7.5-3.3642578,7.5-7.5V3.767395C22.737854,3.9102783,22.4233398,4.0335693,22.0875854,4.1477051z" opacity="0.1"/><linearGradient gradientUnits="userSpaceOnUse" id="SVGID_1_" x1="3.6974726" x2="25.4696064" y1="6.2978172" y2="16.4503307"><stop offset="0" style="stop-color:#FFFFFF;stop-opacity:0.2"/><stop offset="1" style="stop-color:#FFFFFF;stop-opacity:0"/></linearGradient><path d="M24,4.5v-2C24,0.5224609,18.4399414,0,15.5,0S7,0.5224609,7,2.5v2   c0,1.3438721,0.3218994,2.611145,0.8795776,3.7420044C3.2741089,9.0741577,0,12.0125122,0,15.4228516   c0,2.2671509,1.4613647,4.9869995,8.1668701,5.4925537C8.0609131,21.0960693,8,21.289978,8,21.5c0,1.7177734,3.8876953,2.5,7.5,2.5   s7.5-0.7822266,7.5-2.5c0-1.2081299-1.8884277-1.9185791-4.1152344-2.2559204C20.2878418,18.3178101,21,17.0389404,21,15.4228516   c0-1.2161255-0.446228-2.4053955-1.2537231-3.4787598l0.2557373-0.2474365C22.3985596,10.1919556,24,7.5326538,24,4.5z" fill="url(#SVGID_1_)"/></g><g/><g/><g/><g/><g/><g/><g/><g/><g/><g/><g/><g/><g/><g/><g/></svg>